<?xml version="1.0" standalone="no"?>
<svg xmlns="http://www.w3.org/2000/svg" viewBox="0 0 389.1807291185971 138.06072911859715" width="389.1807291185971" height="138.06072911859715"><rect fill="#000000" width="389.1807291185971" height="138.06072911859715" x="0" y="0"></rect><g fill="white" color="white" transform="translate(12 12) scale(1.1406073)"><svg width="100.0" height="100.0" x="0.0" y="0.0" viewBox="0 0 100 100"><path d="M8.1,66.8c-2.1-2.3-3.6-4.8-4-7.9L3.9,58L1.4,33.5c-0.1-1.2,0.3-2.4,1.2-3.2c1.1-0.9,2.9-1.2,4.3,0.3  c0.9,1.1,1.4,4.4,1.6,5.3c0.5,3.2,1.1,7.8,1.2,11c0,0.2,0,0.5,0,0.7c0.1,1.4,0.4,2.7,1,4c3.3,7.1,9.8,16,9.8,16l0.4,0.5  c0.3,0.4,0.8,0.5,1.2,0.3c0.5-0.3,0.6-0.9,0.4-1.3l-8.7-14.1c-0.9-1.6-0.4-3.8,1.3-4.8c1.7-1,3.9-0.5,4.9,1.1l9,11.6  c0.6,0.8,1.7,1.9,2.5,2.4c8.1,5.8,9.2,11.8,9.9,14.8c0,0,0.1,0.7,0.1,1.7h0l0,0c0,0.8,0,1.8-0.2,2.8l-0.5,9.7c0,0.7-0.6,1.3-1.3,1.3  l-15.2-0.1c-0.7,0-1.3-0.6-1.3-1.3l-0.3-8L8.1,66.8z M10.5,32.3c0.3,0.9,0.4,1.7,0.6,2.6c0.5,2.8,1.1,7.8,1.2,10.4  c0,0.3,0,0.5,0,0.8c0.3-0.3,0.6-0.5,1-0.7c0.4-0.3,0.9-0.5,1.4-0.6c0,0,0-0.1,0.1-0.1c-0.3-2.5-1.2-7.3-1.9-9.8  C12.5,33.6,11.8,32.7,10.5,32.3z M15.4,35.8c0.4,1.8,1.4,5.2,1.7,7l0.2,1.2c0,0.1,0,0.2,0,0.3c0.7,0,1.5,0.2,2.2,0.4  c-0.2-1.6-1.3-4.9-1.7-6.4C17.3,37.1,16.6,36.2,15.4,35.8z M95.9,58.9l0.1-0.9l2.5-24.5c0.1-1.2-0.3-2.4-1.2-3.2  c-1.1-0.9-2.9-1.2-4.3,0.3c-0.9,1.1-1.4,4.4-1.6,5.3c-0.5,3.2-1.1,7.8-1.2,11c0,0.2,0,0.5,0,0.7c-0.1,1.4-0.4,2.7-1,4  c-3.3,7.1-9.8,16-9.8,16l-0.4,0.5c-0.3,0.4-0.8,0.5-1.2,0.3c-0.5-0.3-0.6-0.9-0.4-1.3l8.7-14.1c0.9-1.6,0.4-3.8-1.3-4.8  c-1.7-1-3.9-0.5-4.9,1.1l-9,11.6c-0.6,0.8-1.7,1.9-2.5,2.4c-8.1,5.8-9.2,11.8-9.9,14.8c0,0-0.1,0.7-0.1,1.7v0c0,0.8,0,1.8,0.2,2.8  l0.5,9.7c0,0.7,0.6,1.3,1.3,1.3l15.2-0.1c0.7,0,1.3-0.6,1.3-1.3l0.3-8l14.5-17.4C94,64.5,95.5,62,95.9,58.9z M87.1,34.8  c-0.7,2.5-1.5,7.3-1.9,9.8c0,0,0,0.1,0.1,0.1c0.5,0.2,0.9,0.4,1.4,0.6c0.4,0.2,0.7,0.5,1,0.7c0-0.3,0-0.5,0-0.8  c0.1-2.7,0.7-7.6,1.2-10.4c0.1-0.8,0.3-1.7,0.6-2.6C88.2,32.7,87.5,33.6,87.1,34.8z M80.6,44.8c0.7-0.3,1.4-0.4,2.2-0.4  c0-0.1,0-0.2,0-0.3l0.2-1.2c0.2-1.8,1.3-5.1,1.7-7c-1.2,0.4-1.9,1.3-2.3,2.5C81.9,39.9,80.8,43.1,80.6,44.8z M56.2,36.9  c-1,0.9-1,2.6,0,3.6c0.9,1,2.6,1,3.6,0c1-0.9,1-2.6,0-3.6C58.8,36,57.3,35.9,56.2,36.9z M43.7,30.1c1-0.9,1-2.6,0-3.6  c-0.9-1-2.6-1-3.6,0c-1,0.9-1,2.6,0,3.6C41.1,31,42.7,31,43.7,30.1z M75.4,37.2c-1.2,1-1.5,2.7-0.9,4.1l0.5,1.3  c0.8,2-0.3,4.3-2.4,4.9l-1.4,0.4c-1.5,0.4-2.5,1.7-2.6,3.3l-0.1,1.4c-0.1,1.9-1.7,3.4-3.6,3.4c-0.2,0-0.4,0-0.6-0.1l-1.4-0.2  c-0.2,0-0.4-0.1-0.6-0.1c-1.3,0-2.5,0.7-3.2,1.9l-0.7,1.2c-0.7,1.2-1.9,1.9-3.2,1.9c-0.7,0-1.5-0.2-2.1-0.7L52,59  c-0.6-0.5-1.4-0.7-2.1-0.7c-0.7,0-1.5,0.2-2.1,0.7l-1.2,0.8c-0.6,0.5-1.4,0.7-2.1,0.7c-1.3,0-2.5-0.7-3.2-1.9l-0.7-1.2  c-0.6-1.2-1.9-1.9-3.2-1.9c-0.2,0-0.4,0-0.6,0.1l-1.4,0.2c-0.2,0-0.4,0.1-0.6,0.1c-1.9,0-3.5-1.5-3.6-3.4L31.3,51  c-0.1-1.5-1.1-2.9-2.6-3.3l-1.4-0.4c-2.1-0.6-3.2-2.9-2.3-4.9l0.6-1.3c0.6-1.4,0.2-3.1-0.9-4.1l-1.1-0.9c-1.6-1.4-1.6-4,0-5.4  l1.1-0.9c1.2-1,1.5-2.7,0.9-4.1L25,24.4c-0.8-2,0.3-4.3,2.4-4.9l1.4-0.4c1.5-0.4,2.5-1.7,2.6-3.3l0.1-1.4c0.1-1.9,1.7-3.4,3.6-3.4  c0.2,0,0.4,0,0.6,0.1l1.4,0.2c0.2,0,0.4,0.1,0.6,0.1c1.3,0,2.5-0.7,3.2-1.9l0.7-1.2c0.7-1.2,1.9-1.9,3.2-1.9c0.7,0,1.5,0.2,2.1,0.7  L48,7.9c0.6,0.5,1.4,0.7,2.1,0.7c0.7,0,1.5-0.2,2.1-0.7l1.2-0.8c0.6-0.5,1.4-0.7,2.1-0.7c1.3,0,2.5,0.7,3.2,1.9l0.7,1.2  c0.6,1.2,1.9,1.9,3.2,1.9c0.2,0,0.4,0,0.6-0.1l1.4-0.2c0.2,0,0.4-0.1,0.6-0.1c1.9,0,3.5,1.5,3.6,3.4l0.1,1.4  c0.1,1.5,1.1,2.9,2.6,3.3l1.4,0.4c2.1,0.6,3.2,2.9,2.3,4.9l-0.6,1.3c-0.6,1.4-0.2,3.1,0.9,4.1l1.1,0.9c1.6,1.4,1.6,4,0,5.4  L75.4,37.2z M41.9,34.3c3.3,0,6.1-2.7,6.2-6c0-3.3-2.7-6.1-6-6.2c-3.3,0-6.1,2.7-6.2,6C35.8,31.5,38.5,34.3,41.9,34.3z M60.4,23.9  l-2.7-2.3L39.6,43.1l2.7,2.3L60.4,23.9z M64.2,38.8c0-3.3-2.7-6.1-6-6.2c-3.3,0-6.1,2.7-6.2,6c0,3.3,2.7,6.1,6,6.2  C61.4,44.8,64.1,42.1,64.2,38.8z"></path></svg></g><path fill="white" fill-rule="nonzero" d="M12.80 0Q18.08 0 21.48 2.14Q24.88 4.28 24.96 8.48L24.96 8.48L24.96 8.96L16.68 8.96L16.68 8.80Q16.68 7.60 15.80 6.80Q14.92 6 13.12 6L13.12 6Q11.36 6 10.42 6.52Q9.48 7.04 9.48 7.80L9.48 7.80Q9.48 8.88 10.76 9.40Q12.04 9.92 14.88 10.48L14.88 10.48Q18.20 11.16 20.34 11.90Q22.48 12.64 24.08 14.32Q25.68 16 25.72 18.88L25.72 18.88Q25.72 23.76 22.42 26.12Q19.12 28.48 13.60 28.48L13.60 28.48Q7.16 28.48 3.58 26.32Q0 24.16 0 18.68L0 18.68L8.36 18.68Q8.36 20.76 9.44 21.46Q10.52 22.16 12.80 22.16L12.80 22.16Q14.48 22.16 15.58 21.80Q16.68 21.44 16.68 20.32L16.68 20.32Q16.68 19.32 15.46 18.82Q14.24 18.32 11.48 17.76L11.48 17.76Q8.12 17.04 5.92 16.26Q3.72 15.48 2.08 13.68Q0.44 11.88 0.44 8.80L0.44 8.80Q0.44 4.28 3.94 2.14Q7.44 0 12.80 0L12.80 0ZM38.96 12.24L48.76 0.48L59.72 0.48L49.84 11.80L59.92 28L49.48 28L43.76 17.92L38.96 21.84L38.96 28L30.12 28L30.12 0.48L38.96 0.48L38.96 12.24ZM63.44 28L63.44 0.48L87.24 0.48L87.24 7.08L72.28 7.08L72.28 10.88L85.08 10.88L85.08 17.20L72.28 17.20L72.28 21.40L87.52 21.40L87.52 28L63.44 28ZM92.32 28L92.32 0.48L101.16 0.48L101.16 20.96L115.28 20.96L115.28 28L92.32 28ZM119.00 28L119.00 0.48L142.80 0.48L142.80 7.08L127.84 7.08L127.84 10.88L140.64 10.88L140.64 17.20L127.84 17.20L127.84 21.40L143.08 21.40L143.08 28L119.00 28ZM172.72 7.52L163.72 7.52L163.72 28L154.88 28L154.88 7.52L145.84 7.52L145.84 0.48L172.72 0.48L172.72 7.52ZM189.08 0Q196.20 0 200.08 3.64Q203.96 7.28 203.96 14.24L203.96 14.24Q203.96 21.20 200.08 24.84Q196.20 28.48 189.08 28.48L189.08 28.48Q181.96 28.48 178.10 24.86Q174.24 21.24 174.24 14.24L174.24 14.24Q174.24 7.24 178.10 3.62Q181.96 0 189.08 0L189.08 0ZM189.08 6.60Q186.24 6.60 184.76 8.32Q183.28 10.04 183.28 12.96L183.28 12.96L183.28 15.52Q183.28 18.44 184.76 20.16Q186.24 21.88 189.08 21.88L189.08 21.88Q191.92 21.88 193.42 20.16Q194.92 18.44 194.92 15.52L194.92 15.52L194.92 12.96Q194.92 10.04 193.42 8.32Q191.92 6.60 189.08 6.60L189.08 6.60ZM236.12 28L228.40 28L216.84 14.64L216.84 28L208.72 28L208.72 0.48L216.44 0.48L228.00 14.04L228.00 0.48L236.12 0.48L236.12 28Z" transform="translate(141.061 12.001) scale(1)"></path><path fill="white" fill-rule="nonzero" d="M15.44 0.48Q18 0.48 20 1.66Q22 2.84 23.12 4.90Q24.24 6.96 24.24 9.52L24.24 9.52L24.24 10.04Q24.24 12.60 23.12 14.68Q22 16.76 20 17.94Q18 19.12 15.44 19.12L15.44 19.12L8.84 19.12L8.84 28L0 28L0 0.48L15.44 0.48ZM8.84 7L8.84 12.68L12.48 12.68Q13.88 12.68 14.58 11.96Q15.28 11.24 15.28 10L15.28 10L15.28 9.68Q15.28 8.40 14.58 7.70Q13.88 7 12.48 7L12.48 7L8.84 7ZM42.56 0Q49.68 0 53.56 3.64Q57.44 7.28 57.44 14.24L57.44 14.24Q57.44 21.20 53.56 24.84Q49.68 28.48 42.56 28.48L42.56 28.48Q35.44 28.48 31.58 24.86Q27.72 21.24 27.72 14.24L27.72 14.24Q27.72 7.24 31.58 3.62Q35.44 0 42.56 0L42.56 0ZM42.56 6.60Q39.72 6.60 38.24 8.32Q36.76 10.04 36.76 12.96L36.76 12.96L36.76 15.52Q36.76 18.44 38.24 20.16Q39.72 21.88 42.56 21.88L42.56 21.88Q45.40 21.88 46.90 20.16Q48.40 18.44 48.40 15.52L48.40 15.52L48.40 12.96Q48.40 10.04 46.90 8.32Q45.40 6.60 42.56 6.60L42.56 6.60ZM73.76 0Q79.04 0 82.44 2.14Q85.84 4.28 85.92 8.48L85.92 8.48L85.92 8.96L77.64 8.96L77.64 8.80Q77.64 7.60 76.76 6.80Q75.88 6 74.08 6L74.08 6Q72.32 6 71.38 6.52Q70.44 7.04 70.44 7.80L70.44 7.80Q70.44 8.88 71.72 9.40Q73 9.92 75.84 10.48L75.84 10.48Q79.16 11.16 81.30 11.90Q83.44 12.64 85.04 14.32Q86.64 16 86.68 18.88L86.68 18.88Q86.68 23.76 83.38 26.12Q80.08 28.48 74.56 28.48L74.56 28.48Q68.12 28.48 64.54 26.32Q60.96 24.16 60.96 18.68L60.96 18.68L69.32 18.68Q69.32 20.76 70.40 21.46Q71.48 22.16 73.76 22.16L73.76 22.16Q75.44 22.16 76.54 21.80Q77.64 21.44 77.64 20.32L77.64 20.32Q77.64 19.32 76.42 18.82Q75.20 18.32 72.44 17.76L72.44 17.76Q69.08 17.04 66.88 16.26Q64.68 15.48 63.04 13.68Q61.40 11.88 61.40 8.80L61.40 8.80Q61.40 4.28 64.90 2.14Q68.40 0 73.76 0L73.76 0Z" transform="translate(141.061 48.481) scale(2.725)"></path></svg>